<?xml version="1.0" standalone="no"?>
<!DOCTYPE svg PUBLIC "-//W3C//DTD SVG 20010904//EN"
 "http://www.w3.org/TR/2001/REC-SVG-20010904/DTD/svg10.dtd">
<svg version="1.0" xmlns="http://www.w3.org/2000/svg"
 width="500.000000pt" height="500.000000pt" viewBox="0 0 500.000000 500.000000"
 preserveAspectRatio="xMidYMid meet">

<g transform="translate(0.000000,500.000000) scale(0.100000,-0.100000)"
stroke="none" style="fill: currentColor">
<path d="M2211 4729 c-82 -10 -183 -33 -291 -65 -106 -31 -103 -30 -235 -94
-195 -95 -332 -204 -469 -372 -25 -32 -46 -60 -46 -63 0 -3 -18 -32 -40 -64
-57 -83 -125 -254 -150 -374 -17 -87 -20 -137 -20 -393 0 -247 4 -327 25 -511
31 -275 95 -636 153 -868 32 -128 35 -132 83 -140 23 -4 112 -28 198 -52 86
-25 170 -49 186 -53 17 -4 84 -24 150 -45 66 -20 152 -46 190 -57 39 -11 106
-32 150 -46 l80 -27 3 -42 c3 -36 0 -43 -15 -43 -47 1 -179 31 -278 64 -60 20
-123 40 -140 45 -63 19 -245 74 -365 111 -184 57 -180 57 -180 28 0 -13 7 -47
15 -75 15 -49 17 -52 68 -68 28 -10 61 -23 72 -29 11 -7 74 -31 140 -55 66
-24 143 -52 170 -63 63 -26 160 -59 448 -153 249 -82 318 -94 434 -76 76 12
586 177 788 256 390 151 363 138 371 172 3 15 10 45 16 67 5 21 8 40 6 42 -5
5 -128 -24 -153 -36 -11 -5 -76 -25 -145 -45 -125 -36 -164 -48 -400 -124
-120 -39 -218 -61 -267 -61 -21 0 -23 5 -23 44 0 42 2 45 32 51 18 4 39 11 48
16 15 8 121 39 265 79 39 10 171 49 295 86 124 37 257 74 295 82 39 8 71 15
73 17 16 14 124 519 156 735 54 353 70 578 63 880 -4 214 -6 231 -36 340 -61
222 -176 415 -339 571 -109 104 -148 139 -157 139 -3 0 -25 13 -48 29 -169
115 -418 205 -657 237 -114 15 -413 17 -519 3z m528 -414 c238 -35 437 -113
591 -231 68 -52 198 -183 241 -244 47 -64 149 -242 149 -258 0 -8 6 -28 14
-45 32 -75 76 -239 76 -287 0 -5 -22 -10 -50 -10 -48 0 -49 1 -59 38 -6 20
-11 44 -11 54 0 31 -72 222 -111 297 -124 234 -318 412 -552 505 -238 95 -596
118 -913 61 -228 -42 -417 -140 -570 -297 -123 -126 -187 -222 -255 -383 -16
-37 -59 -197 -59 -219 0 -27 -9 -40 -38 -55 -33 -17 -72 9 -72 47 0 96 116
388 201 507 19 26 39 55 45 66 14 24 120 134 175 181 166 142 378 234 629 272
132 20 435 20 569 1z m-416 -456 c37 -17 47 -45 49 -144 l3 -90 83 -3 82 -3 0
96 c0 93 1 98 29 126 40 39 79 39 126 -2 l35 -31 0 -93 c0 -102 2 -105 64
-105 47 0 148 -54 191 -102 21 -22 49 -66 64 -97 36 -76 36 -202 2 -274 -28
-58 -86 -109 -143 -127 l-43 -13 45 -21 c80 -37 119 -66 148 -110 60 -88 67
-215 17 -323 -31 -68 -70 -112 -140 -157 -65 -42 -79 -47 -145 -55 l-55 -6 -5
-113 c-5 -109 -6 -115 -33 -138 -35 -30 -94 -32 -128 -5 -22 18 -24 28 -29
138 l-5 118 -77 3 -78 3 0 -96 c0 -137 -25 -185 -95 -185 -38 0 -84 27 -95 56
-6 14 -10 70 -10 125 l0 99 -147 0 c-125 0 -151 3 -169 18 -29 23 -44 54 -44
92 0 78 41 100 185 100 l105 0 0 435 0 435 -105 0 c-115 0 -169 16 -179 54
-13 49 -6 86 23 118 l29 33 151 3 151 4 0 88 c0 74 3 91 21 114 34 43 77 55
122 35z"/>
<path d="M2379 3406 c-2 -2 -3 -75 -1 -161 l3 -157 169 4 169 3 30 29 c44 42
65 104 56 163 -5 38 -15 56 -46 85 l-40 38 -168 0 c-92 0 -170 -2 -172 -4z"/>
<path d="M2380 2704 l0 -166 188 4 c177 3 189 4 220 26 91 66 78 226 -23 277
-34 17 -65 20 -212 22 l-173 3 0 -166z"/>
<path d="M754 3009 c-55 -16 -60 -41 -40 -197 26 -202 53 -381 78 -521 19
-108 26 -128 53 -157 37 -41 90 -49 128 -20 18 14 17 20 -12 158 -34 162 -50
256 -86 512 -24 172 -31 196 -64 224 -17 14 -15 13 -57 1z"/>
<path d="M4103 2998 c-27 -33 -36 -74 -68 -290 -37 -256 -53 -348 -84 -483
-18 -82 -19 -91 -4 -107 26 -29 86 -23 126 11 31 28 35 39 55 148 38 204 94
601 94 656 -1 49 -27 77 -71 77 -21 0 -43 -6 -48 -12z"/>
<path d="M1564 1233 c-15 -32 -44 -87 -65 -123 -88 -155 -50 -267 126 -365
305 -171 933 -217 1405 -103 218 52 418 178 436 276 10 53 -3 116 -36 179
-110 207 -106 203 -156 179 -51 -24 -311 -115 -471 -165 -278 -88 -384 -91
-608 -22 -245 77 -344 109 -459 152 -72 27 -134 49 -138 49 -3 0 -19 -26 -34
-57z"/>
</g>
</svg>
